<svg width="72" height="78" viewBox="0 0 72 78" fill="none" xmlns="http://www.w3.org/2000/svg">
<path d="M1.6489 41.7709L9.90957 35.0589C11.8239 33.5039 14.6377 33.794 16.1937 35.7063C17.7505 37.6195 17.4602 40.4314 15.5458 41.9864L11.5482 45.2346L40.5728 69.6746C42.4871 71.2296 42.7774 74.0416 41.2206 75.954C40.338 77.0399 39.0504 77.6025 37.7524 77.6025C36.7624 77.6025 35.765 77.2751 34.9372 76.6021L1.6489 48.6984C0.606171 47.8507 0 46.5785 0 45.2346C0 43.8908 0.606171 42.6193 1.6489 41.7709Z" fill="white"/>
<path d="M38.3307 0.759662C40.702 0.778662 42.6098 2.71517 42.5908 5.08572L42.2215 73.3445C42.2025 75.715 40.2641 77.6208 37.8927 77.6018C37.2916 77.5975 36.7213 77.4696 36.2036 77.243C34.679 76.5744 33.618 75.0464 33.6318 73.2758L34.0019 5.01775C34.0209 2.64719 35.9586 0.740663 38.3307 0.759662Z" fill="white"/>
<path d="M57.1825 47.7133L60.2332 45.2346L49.3671 36.405C47.4528 34.8499 47.1632 32.038 48.7193 30.1256C50.2753 28.2118 53.0891 27.9224 55.0034 29.4775L70.1317 41.7709C71.1752 42.6193 71.7807 43.8908 71.7807 45.2346C71.7807 46.5785 71.1752 47.8507 70.1317 48.6984L62.8188 54.6409C61.9903 55.3139 60.9936 55.6412 60.0035 55.6412C58.7049 55.6412 57.4172 55.0786 56.5346 53.9934C54.9786 52.0803 55.2688 49.2691 57.1825 47.7133Z" fill="#7B4AE2"/>
</svg>
